<?xml version="1.0" encoding="utf-8"?>
<!-- Generator: Adobe Illustrator 19.0.0, SVG Export Plug-In . SVG Version: 6.00 Build 0)  -->
<svg version="1.1" id="Capa_1" xmlns="http://www.w3.org/2000/svg" xmlns:xlink="http://www.w3.org/1999/xlink" x="0px" y="0px"
	 viewBox="0 0 20 20" style="enable-background:new 0 0 20 20;" xml:space="preserve">
<style type="text/css">
	.st0{opacity:0;fill:#FFFFFF;}
</style>
<path id="Facebook_4_" d="M7.3,6c0,0.4,0,2,0,2H5.8v2.5h1.5v7.3h3v-7.3h2c0,0,0.2-1.1,0.3-2.5c-0.3,0-2.3,0-2.3,0s0-1.4,0-1.7
	c0-0.3,0.4-0.6,0.6-0.6c0.4,0,1,0,1.7,0c0-0.4,0-1.5,0-2.5c-0.9,0-1.8,0-2.2,0C7.2,3.2,7.3,5.7,7.3,6z"/>
<rect class="st0" width="20" height="20"/>
</svg>
