<?xml version="1.0" encoding="utf-8"?>
<!-- Generator: Adobe Illustrator 19.0.0, SVG Export Plug-In . SVG Version: 6.00 Build 0)  -->
<svg version="1.1" id="Capa_1" xmlns="http://www.w3.org/2000/svg" xmlns:xlink="http://www.w3.org/1999/xlink" x="0px" y="0px"
	 viewBox="0 0 20 20" style="enable-background:new 0 0 20 20;" xml:space="preserve">
<style type="text/css">
	.st0{opacity:0;fill:#FFFFFF;}
</style>
<g id="ivQXQ4.tif">
	<g id="XMLID_7_">
		<path id="XMLID_12_" d="M18.2,7.8c0,1.2,0,2.4,0,3.7c0,0,0,0.1,0,0.1c0,0.5,0,1.1-0.1,1.6c0,0.5-0.1,0.9-0.2,1.4
			c-0.3,1.1-1,2-2.1,2.5c-0.7,0.4-1.4,0.5-2.2,0.6c-0.6,0-1.2,0.1-1.8,0.1c-1.7,0-3.4,0-5.1,0c-0.5,0-1.1-0.1-1.6-0.2
			c-1.1-0.3-1.9-0.9-2.5-1.9C2.2,14.8,2.1,14,2,13.2c0-0.5,0-1.1-0.1-1.6c0,0,0-0.1,0-0.1c0-1.2,0-2.5,0-3.7c0,0,0-0.1,0-0.1
			c0-0.5,0-0.9,0-1.4c0-0.5,0.1-1,0.2-1.6c0.3-1.1,0.9-2,1.9-2.6c0.7-0.4,1.5-0.6,2.3-0.6c0.5,0,1.1,0,1.6-0.1c0,0,0.1,0,0.1,0
			c1.2,0,2.5,0,3.7,0c0,0,0.1,0,0.1,0c0.5,0,0.9,0,1.4,0c0.6,0,1.1,0.1,1.7,0.3c1.1,0.3,1.9,0.9,2.4,1.9c0.4,0.7,0.6,1.5,0.7,2.3
			c0,0.5,0,1.1,0.1,1.6C18.2,7.7,18.2,7.7,18.2,7.8z M3.4,9.6C3.4,9.6,3.4,9.6,3.4,9.6c0,1,0,2,0,3c0,0.5,0,0.9,0.1,1.4
			c0.2,0.7,0.5,1.2,1,1.7C5,15.9,5.5,16,6,16.1c0.5,0.1,1,0.1,1.4,0.1c1.9,0,3.8,0,5.7,0c0.4,0,0.9,0,1.3-0.1
			c0.6-0.1,1.1-0.4,1.6-0.9c0.4-0.4,0.5-0.9,0.6-1.5c0.1-0.5,0.1-1,0.1-1.5c0-1.9,0-3.7,0-5.6c0-0.4,0-0.9-0.1-1.3
			c-0.2-0.7-0.5-1.2-1-1.7c-0.4-0.3-0.9-0.5-1.4-0.6C13.6,3,13.2,3,12.7,3c-1.9,0-3.8,0-5.6,0C6.6,3,6.2,3,5.8,3.1
			c-0.7,0.2-1.2,0.5-1.7,1C3.8,4.6,3.6,5.1,3.5,5.6c-0.1,0.5-0.1,1-0.1,1.5C3.4,7.9,3.4,8.8,3.4,9.6z"/>
		<path id="XMLID_9_" d="M5.9,9.6c0-2.3,1.9-4.2,4.2-4.2c2.3,0,4.2,1.9,4.2,4.2c0,2.3-1.9,4.2-4.2,4.2C7.8,13.8,5.9,11.9,5.9,9.6z
			 M10.1,6.9c-1.5,0-2.7,1.2-2.7,2.7c0,1.5,1.2,2.7,2.7,2.7c1.5,0,2.7-1.2,2.7-2.7C12.8,8.1,11.6,6.9,10.1,6.9z"/>
		<path id="XMLID_1_" d="M13.4,5.3c0-0.5,0.4-1,1-1c0.5,0,1,0.4,1,1c0,0.5-0.4,1-1,1C13.9,6.2,13.4,5.8,13.4,5.3z"/>
	</g>
</g>
<rect class="st0" width="20" height="20"/>
</svg>
