<?xml version="1.0" encoding="utf-8"?>
<!-- Generator: Adobe Illustrator 19.0.0, SVG Export Plug-In . SVG Version: 6.00 Build 0)  -->
<svg version="1.1" id="Capa_1" xmlns="http://www.w3.org/2000/svg" xmlns:xlink="http://www.w3.org/1999/xlink" x="0px" y="0px"
	 viewBox="0 0 450 180" style="enable-background:new 0 0 450 180;" xml:space="preserve">
<style type="text/css">
	.st0{fill:#FCB514;}
	.st1{fill:#F27421;}
	.st2{fill:#2C1549;}
	.st3{fill:#FFFFFF;}
</style>
<g>
	<g>
		<rect x="13.8" y="14.6" class="st0" width="432.7" height="160.9"/>
		<rect x="3.8" y="4.6" class="st1" width="432.7" height="160.9"/>
	</g>
	<rect x="13.8" y="14.6" class="st2" width="422.7" height="150.9"/>
	<g>
		<g>
			<path class="st3" d="M54.3,58.8h-9.9v-7.9h28.9v7.9h-10V89h-9V58.8z"/>
			<path class="st3" d="M112.7,89h-9.4l-6.4-13.1h-5.3V89h-9V50.9h21.2c5.1,0,7.5,2.4,7.5,7.5V68c0,4.3-1.7,6.6-5.2,7.3L112.7,89z
				 M101.3,68.4c0.8,0,1-0.2,1-1v-7.7c0-0.8-0.3-1-1-1h-9.6v9.8H101.3z"/>
			<path class="st3" d="M122.2,81.5V50.9h9v29c0,0.7,0.3,1,1,1h8.9c0.8,0,1-0.3,1-1v-29h9v30.6c0,5-2.5,7.5-7.5,7.5h-14
				C124.8,89,122.2,86.5,122.2,81.5z"/>
			<path class="st3" d="M179.7,81.5V58.4c0-5.1,2.5-7.5,7.6-7.5h13.6c5.1,0,7.5,2.4,7.5,7.5v6.6h-9v-5.3c0-0.8-0.3-1-1-1h-8.5
				c-0.8,0-1,0.2-1,1v20.3c0,0.8,0.3,1,1,1h8.5c0.8,0,1-0.3,1-1v-5.3h9v6.7c0,5.1-2.4,7.5-7.5,7.5h-13.6
				C182.2,89,179.7,86.6,179.7,81.5z"/>
			<path class="st3" d="M218,81.5V58.4c0-5.1,2.4-7.5,7.5-7.5h14.6c5.1,0,7.5,2.4,7.5,7.5v23.1c0,5.1-2.4,7.5-7.5,7.5h-14.6
				C220.5,89,218,86.6,218,81.5z M237.6,81.2c0.8,0,1-0.3,1-1V59.8c0-0.8-0.2-1-1-1h-9.5c-0.8,0-1,0.2-1,1v20.3c0,0.8,0.3,1,1,1
				H237.6z"/>
			<path class="st3" d="M258.9,50.9h9v30.1h15.8V89h-24.9V50.9z"/>
			<path class="st3" d="M291.7,81.5V58.4c0-5.1,2.4-7.5,7.5-7.5h14.6c5.1,0,7.5,2.4,7.5,7.5v23.1c0,5.1-2.4,7.5-7.5,7.5h-14.6
				C294.2,89,291.7,86.6,291.7,81.5z M311.3,81.2c0.8,0,1-0.3,1-1V59.8c0-0.8-0.2-1-1-1h-9.5c-0.8,0-1,0.2-1,1v20.3c0,0.8,0.3,1,1,1
				H311.3z"/>
			<path class="st3" d="M362.7,89h-9.4l-6.4-13.1h-5.3V89h-9V50.9h21.2c5.1,0,7.5,2.4,7.5,7.5V68c0,4.3-1.7,6.6-5.2,7.3L362.7,89z
				 M351.3,68.4c0.8,0,1-0.2,1-1v-7.7c0-0.8-0.3-1-1-1h-9.6v9.8H351.3z"/>
			<path class="st3" d="M371.4,81.5v-5h8.9v3.9c0,0.8,0.3,1,1,1h8.6c0.8,0,1-0.3,1-1v-4c0-0.9-0.4-1.1-1.5-1.4l-10.1-2.4
				c-5.1-1.3-7.8-2.7-7.8-7.8v-6.3c0-5.1,2.4-7.5,7.5-7.5h12.8c5.1,0,7.5,2.4,7.5,7.5V63h-8.9v-3.4c0-0.8-0.3-1-1-1h-7.8
				c-0.8,0-1,0.2-1,1v3.5c0,0.9,0.3,1.1,1.5,1.4l10.1,2.4c5.1,1.3,7.8,2.7,7.8,7.8v6.7c0,5.1-2.4,7.5-7.5,7.5h-13.6
				C373.8,89,371.4,86.6,371.4,81.5z"/>
		</g>
		<g>
			<path class="st0" d="M141,108.8c2.7,0,3.9,1.3,3.9,5.2c0,2.6-0.5,3.6-1.8,4.3c1.4,0.6,2,1.7,2,4.6c0,4.2-1.3,5.5-3.9,5.5h-10.5
				v-19.6H141z M140.3,116.6c0.4,0,0.6-0.1,0.6-2.1s-0.1-2.1-0.6-2.1h-5.5v4.2H140.3z M140.5,124.8c0.4,0,0.6-0.1,0.6-2.3
				s-0.1-2.3-0.6-2.3h-5.8v4.6H140.5z"/>
			<path class="st0" d="M161.8,128.4l-3.2-6.9h-3.2v6.9h-4v-19.6h10.3c2.7,0,3.9,1.3,3.9,3.9v4.7c0,2.2-0.9,3.5-2.7,3.8l3.3,7.1
				H161.8z M160.9,117.9c0.4,0,0.6-0.1,0.6-0.6V113c0-0.4-0.1-0.6-0.6-0.6h-5.6v5.5H160.9z"/>
			<path class="st0" d="M185.2,108.8v3.7H176v4.1h7.4v3.6H176v4.5h9.2v3.7H172v-19.6H185.2z"/>
			<path class="st0" d="M205.3,128.4l-3.2-12.8l-3.2,12.8h-4.5l-4.9-19.6h4.2l3.1,14.4l3.6-14.4h3.4l3.6,14.4l3.1-14.4h4l-4.9,19.6
				H205.3z"/>
			<path class="st0" d="M219.7,108.8h4v19.6h-4V108.8z"/>
			<path class="st0" d="M246.3,108.8v19.6h-3.9l-7.7-13.1v13.1h-3.9v-19.6h4.2l7.4,12.6v-12.6H246.3z"/>
			<path class="st0" d="M263.3,113.1c0-0.4-0.1-0.6-0.6-0.6h-5.4c-0.4,0-0.6,0.1-0.6,0.6v11.1c0,0.4,0.1,0.6,0.6,0.6h5.4
				c0.4,0,0.6-0.1,0.6-0.6v-3h-3.7v-3.5h7.7v6.9c0,2.7-1.3,3.9-3.9,3.9h-6.7c-2.7,0-3.9-1.3-3.9-3.9v-11.8c0-2.7,1.3-3.9,3.9-3.9
				h6.7c2.7,0,3.9,1.3,3.9,3.9v2.6h-4V113.1z"/>
			<path class="st0" d="M286.4,128.4c-2.7,0-3.9-1.3-3.9-3.9v-11.8c0-2.7,1.3-3.9,3.9-3.9h6.5c2.7,0,3.9,1.3,3.9,3.9v3.2h-4v-2.9
				c0-0.4-0.1-0.6-0.6-0.6h-5.2c-0.4,0-0.6,0.1-0.6,0.6v11.1c0,0.4,0.1,0.6,0.6,0.6h5.2c0.4,0,0.6-0.1,0.6-0.6v-2.9h4v3.2
				c0,2.7-1.3,3.9-3.9,3.9H286.4z"/>
			<path class="st0" d="M306.3,128.4c-2.7,0-3.9-1.3-3.9-3.9v-11.8c0-2.7,1.3-3.9,3.9-3.9h7.2c2.7,0,3.9,1.3,3.9,3.9v11.8
				c0,2.7-1.3,3.9-3.9,3.9H306.3z M306.5,124.1c0,0.4,0.1,0.6,0.6,0.6h5.9c0.4,0,0.6-0.1,0.6-0.6v-11.1c0-0.4-0.1-0.6-0.6-0.6H307
				c-0.4,0-0.6,0.1-0.6,0.6V124.1z"/>
		</g>
	</g>
</g>
</svg>
