<?xml version="1.0" encoding="utf-8"?>
<!-- Generator: Adobe Illustrator 19.0.0, SVG Export Plug-In . SVG Version: 6.00 Build 0)  -->
<svg version="1.1" id="Capa_1" xmlns="http://www.w3.org/2000/svg" xmlns:xlink="http://www.w3.org/1999/xlink" x="0px" y="0px"
	 viewBox="0 0 20 20" style="enable-background:new 0 0 20 20;" xml:space="preserve">
<style type="text/css">
	.st0{opacity:0;fill:#FFFFFF;}
</style>
<path id="XMLID_123_" d="M17.3,5.9c-0.5,0.2-1.1,0.4-1.8,0.5c0.6-0.4,1.1-1,1.3-1.7c-0.6,0.3-1.2,0.6-1.9,0.7c-0.6-0.6-1.3-1-2.2-1
	c-1.7,0-3,1.4-3,3c0,0.2,0,0.5,0.1,0.7C7.2,8.1,4.9,6.9,3.4,5C3.2,5.5,3,6,3,6.5c0,1.1,0.5,2,1.4,2.5C3.9,9,3.4,8.8,3,8.6l0,0
	c0,1.5,1.1,2.7,2.4,3c-0.3,0.1-0.5,0.1-0.8,0.1c-0.2,0-0.4,0-0.6-0.1c0.4,1.2,1.5,2.1,2.8,2.1C5.8,14.5,4.4,15,3,15
	c-0.2,0-0.5,0-0.7,0c1.3,0.9,3,1.4,4.7,1.4c5.6,0,8.7-4.6,8.7-8.7c0-0.1,0-0.3,0-0.4C16.3,7,16.8,6.5,17.3,5.9z"/>
<rect class="st0" width="20" height="20"/>
</svg>
